<svg viewBox="0 0 24 24" fill="none" xmlns="http://www.w3.org/2000/svg"><path d="M11.815 1.278c-.484.115-.717.726-.432 1.13.221.312.289.327 1.537.357 1.2.029 1.429.059 1.759.226.184.093.237.146.33.33.15.296.186.506.217 1.269l.026.65H8.76v-.41c.001-.51.062-1.07.145-1.322.034-.106.125-.274.201-.373.076-.1.155-.226.176-.281.096-.252.005-.647-.189-.822a.8.8 0 0 0-.785-.138c-.289.121-.642.603-.803 1.098-.15.459-.188.72-.21 1.448-.011.363-.027.699-.037.746-.016.079-.05.087-.468.112-1.471.086-2.425.277-3.117.625-.982.493-1.637 1.268-1.993 2.358-.253.773-.348 1.584-.405 3.439-.047 1.568-.015 5.248.048 5.488a.708.708 0 0 0 .696.525c.275.003.486-.106.623-.323l.112-.176.018-3.387c.012-2.133.035-3.528.064-3.767.267-2.259.979-2.971 3.244-3.245.541-.066 10.201-.097 11.18-.037 1.588.099 2.353.315 2.964.839.327.282.587.346.886.221a.708.708 0 0 0 .45-.678c0-.25-.077-.407-.306-.625-.813-.776-1.981-1.14-4.024-1.256-.439-.025-.472-.033-.488-.113a12.252 12.252 0 0 1-.037-.746c-.022-.728-.06-.989-.21-1.448a2.261 2.261 0 0 0-1.487-1.487c-.462-.151-.707-.185-1.648-.225-.997-.043-1.371-.044-1.545-.002m-.004 8c-.264.065-.458.281-.557.62-.027.093-.07.129-.195.165-.431.125-1.023.521-1.301.869-.347.435-.491.857-.487 1.428.004.664.224 1.148.735 1.62.53.489.986.675 1.86.759.377.036.626.08.745.133.227.1.505.35.575.517.247.59-.346 1.182-1.186 1.182-.695 0-1.188-.363-1.258-.927-.043-.348-.18-.54-.471-.662a.65.65 0 0 0-.542 0c-.334.14-.466.359-.459.769.014.848.526 1.585 1.41 2.029.143.071.32.143.393.159.133.029.178.09.225.312.038.178.304.415.518.46.41.088.832-.154.888-.51.03-.184.058-.212.276-.281.626-.199 1.253-.715 1.531-1.261.247-.486.295-1.179.117-1.69-.134-.386-.298-.633-.623-.937-.535-.499-.989-.686-1.871-.771-.636-.06-.827-.124-1.095-.366-.659-.595-.087-1.466.961-1.466.701 0 1.187.359 1.258.927.043.348.18.54.471.662a.65.65 0 0 0 .542 0c.334-.14.466-.359.459-.769-.014-.848-.526-1.585-1.41-2.029a2.439 2.439 0 0 0-.387-.158c-.153-.033-.194-.079-.228-.259-.069-.364-.507-.621-.894-.525m9.95 1.008a.698.698 0 0 0-.442.356c-.077.15-.079.245-.079 3.107 0 3.654-.046 4.47-.301 5.35-.416 1.434-1.295 1.948-3.598 2.099-.857.056-9.825.056-10.682 0-1.494-.098-2.293-.33-2.883-.835-.327-.282-.587-.346-.886-.221a.924.924 0 0 0-.223.13c-.207.187-.288.59-.171.859.156.364.975.919 1.725 1.171 1.133.38 2.424.456 7.779.456s6.646-.076 7.779-.456c1.237-.416 2.107-1.286 2.523-2.523.266-.792.367-1.637.423-3.539.047-1.603.016-5.206-.048-5.448-.101-.382-.529-.619-.916-.506" fill-rule="evenodd" fill="#000"/></svg>