<svg viewBox="0 0 24 24" fill="none" xmlns="http://www.w3.org/2000/svg"><path d="M11.6 2.267c-3.517.161-6.678 2.184-8.254 5.284a9.493 9.493 0 0 0-1.006 3.221c-.069.545-.079 1.792-.018 2.328.149 1.311.673 2.839 1.356 3.96a9.92 9.92 0 0 0 2.602 2.817 8.51 8.51 0 0 0 1.5.887 9.628 9.628 0 0 0 5.958.815c.745-.138.934-.202 1.107-.374.365-.365.272-.944-.188-1.166-.211-.102-.369-.097-.977.035-.594.129-1.047.173-1.74.172-1.238-.003-2.334-.256-3.491-.808-1.029-.49-1.698-.978-2.465-1.798-1.461-1.563-2.225-3.49-2.224-5.612.002-2.297.787-4.205 2.413-5.863 1.381-1.408 3.282-2.269 5.3-2.4 2.668-.174 5.297.983 6.951 3.059a8.38 8.38 0 0 1 1.573 3.116c.194.761.211.944.231 2.428.017 1.273.012 1.451-.049 1.634-.188.568-.597.98-1.162 1.173-.252.086-.782.086-1.034 0a1.864 1.864 0 0 1-1.146-1.098c-.045-.111-.06-.629-.077-2.697l-.02-2.56-.1-.178a.736.736 0 0 0-1.157-.165l-.148.148-.218-.195c-1.19-1.069-2.985-1.44-4.557-.942-2.485.787-3.863 3.457-3.072 5.952.787 2.484 3.462 3.864 5.952 3.071a4.665 4.665 0 0 0 1.868-1.123c.183-.176.339-.313.345-.304l.195.276a3.241 3.241 0 0 0 1.852 1.282c.445.116 1.155.116 1.6 0 1.158-.303 2.02-1.163 2.347-2.342.083-.3.089-.402.089-1.62.001-1.341-.034-1.831-.181-2.56-.804-3.993-3.936-7.04-7.935-7.721-.42-.071-1.531-.17-1.7-.15-.033.003-.177.012-.32.018m1.38 6.627a3.334 3.334 0 0 1 2.128 2.126c.101.296.109.369.109.98s-.008.684-.109.98a3.342 3.342 0 0 1-2.128 2.128c-.296.101-.369.109-.98.109s-.684-.008-.98-.109a3.342 3.342 0 0 1-2.128-2.128c-.099-.293-.108-.374-.11-.96-.002-.563.009-.676.092-.94a3.333 3.333 0 0 1 2.489-2.279c.097-.02.429-.031.737-.024.475.01.609.028.88.117" fill-rule="evenodd" fill="#000"/></svg>