<svg xmlns="http://www.w3.org/2000/svg" version="1.0" viewBox="0 0 256 256">
  <path fill="#fff" d="M111.438 3.702c-15.612 3.08-23.652 6.579-33.308 14.284-8.74 7.104-12.69 11.314-17.9 18.77-4.163 6.087-8.941 10.015-19.292 15.867-15.888 9.624-26.479 30.107-29.287 57.363-1.304 17.515 5.884 37.979 21.231 59.609 2.871 3.825 3.921 4.942 4.024 6.668.407 1.984-.101 4.82-1.153 11.559-1.338 9.26-.23 20.209 2.839 27.578 3.823 8.444 16.754 21.801 26.046 26.768 14.234 7.222 32.111 8.98 49.328 4.8 11.192-2.993 46.267 6.333 56.977 6.333 17.661 0 27.585-4.086 38.197-14.578 8.565-9.044 11.627-16.232 12.785-30.367.799-13.56 1.561-16.281 7.108-22.825 13.253-16.804 16.658-29.152 14.836-53.847-1.498-16.984-4.704-29.575-10.972-43.143-6.756-14.332-14.172-22.616-25.542-28.883-7.497-3.819-8.192-4.717-13.531-16.229-5.521-11.504-11.983-19.386-21.605-26.468-6.633-4.723-16.924-9.912-24.667-12.587-7.599-2.381-25.309-2.782-36.114-.672Z"/>
  <path d="M113.061 9.917c-15.012 2.894-21.771 5.789-30.725 13.07-8.428 6.815-11.763 10.362-16.679 17.456-4.74 6.721-10.534 11.576-21.331 17.736-14.659 8.309-23.613 26.232-26.071 52.277-1.492 16.056 5.092 34.166 20.015 54.983 5.969 8.308 6.144 9.428 4.037 23.244-1.317 8.402-.439 17.457 2.371 23.804 3.159 7.468 14.659 19.23 23.174 23.618 13.168 6.908 28.969 8.402 45.209 4.295 12.113-3.081 22.033-2.428 36.868 2.613 9.919 3.36 11.237 3.547 21.507 3.547 16.59 0 24.403-2.987 33.972-12.789 7.899-8.028 10.007-13.069 10.885-26.137.966-14.377 2.458-18.951 8.601-26.605 12.642-15.59 15.276-25.485 13.344-49.009-1.404-16.43-4.302-27.819-10.358-40.794-6.233-13.536-12.29-20.351-22.824-25.952-8.426-4.574-10.446-6.908-16.239-19.136-5.092-10.829-10.534-17.457-19.576-23.991-6.232-4.481-15.713-9.243-23.086-11.762-6.76-2.241-22.912-2.521-33.094-.468Zm9.04 16.523c3.863 2.894 4.917 6.535 5.268 19.698.439 13.815-.703 26.511-3.775 42.287-2.634 13.629-3.072 14.842-7.023 18.576-4.125 3.828-6.495 4.762-11.938 4.762-7.11 0-15.801-5.975-20.717-14.283-5.794-9.709-7.724-31.926-3.95-43.875 3.862-11.856 11.411-19.977 23.439-25.391 7.022-3.174 15.8-4.014 18.696-1.774Zm38.449 7.002c7.813 5.134 15.802 18.203 18.435 30.339 1.755 8.401 1.755 25.298-.088 33.045-1.756 7.282-5.354 14.656-8.339 16.99-3.511 2.708-11.763 4.108-16.591 2.708-5.882-1.681-11.237-5.321-13.782-9.429-4.916-7.841-7.638-27.165-5.794-40.888 1.23-8.96 6.146-26.698 8.428-30.245 3.423-5.414 11.587-6.534 17.731-2.52ZM64.517 76.103c7.109 8.308 12.903 30.151 13.605 51.156.439 12.695.352 13.442-1.667 18.296-3.687 8.589-13.43 13.442-22.999 11.576-3.951-.84-10.71-6.534-14.748-12.323-8.866-12.882-10.27-39.86-2.809-53.303 3.248-5.974 11.324-14.749 15.538-16.989 5.882-3.081 9.48-2.614 13.08 1.587Zm139.222 5.227c6.058 3.361 13.08 15.03 17.118 28.099 2.722 8.961 4.389 22.217 4.477 35.94.089 15.029-.702 18.016-6.408 23.711-2.371 2.426-3.423 2.8-9.657 3.173-6.231.374-7.285.187-11.323-2.147-19.4-11.202-24.579-31.458-16.415-63.944 5.003-19.604 13.781-29.499 22.208-24.832Zm-66.275 51.25c9.392 4.574 16.942 14.002 25.106 31.179 3.159 6.721 5.179 8.215 12.816 9.148 2.897.373 7.11 1.68 9.305 2.894 5.53 2.894 12.553 11.295 14.747 17.643 2.458 6.815 2.458 17.083.176 22.59-6.672 15.497-27.213 19.791-51.616 10.923-12.026-4.387-23.175-5.228-38.274-2.708-5.442.934-14.132 1.681-19.487 1.774-11.148.094-17.206-1.774-24.667-7.655-6.409-5.134-9.217-11.762-9.832-22.964-.877-18.856 6.32-28.471 25.194-33.326 7.637-1.96 8.427-2.427 10.709-5.787 1.317-1.96 3.073-5.881 3.862-8.682 1.756-6.441 5.18-10.548 11.588-13.91 7.549-3.92 8.779-4.2 17.381-3.92 6.407.186 8.866.747 12.992 2.801Z"/>
</svg>
