<svg aria-hidden="true" style="position: absolute; width: 0; height: 0; overflow: hidden;" version="1.1" xmlns="http://www.w3.org/2000/svg" xmlns:xlink="http://www.w3.org/1999/xlink">
	<defs>
		<symbol id="icon-case" viewBox="0 0 32 32">
			<path d="M15.753 1.704c-0.645 0.153-0.956 0.968-0.576 1.507 0.295 0.416 0.385 0.436 2.049 0.476 1.6 0.039 1.905 0.079 2.345 0.301 0.245 0.124 0.316 0.195 0.44 0.44 0.2 0.395 0.248 0.675 0.289 1.692l0.035 0.867h-8.656v-0.547c0.001-0.68 0.083-1.427 0.193-1.763 0.045-0.141 0.167-0.365 0.268-0.497 0.101-0.133 0.207-0.301 0.235-0.375 0.128-0.336 0.007-0.863-0.252-1.096-0.184-0.154-0.423-0.248-0.683-0.248-0.13 0-0.255 0.023-0.371 0.066l0.007-0.002c-0.385 0.161-0.856 0.804-1.071 1.464-0.2 0.612-0.251 0.96-0.28 1.931-0.015 0.484-0.036 0.932-0.049 0.995-0.021 0.105-0.067 0.116-0.624 0.149-1.961 0.115-3.233 0.369-4.156 0.833-1.309 0.657-2.183 1.691-2.657 3.144-0.337 1.031-0.464 2.112-0.54 4.585-0.063 2.091-0.020 6.997 0.064 7.317 0.111 0.406 0.477 0.7 0.912 0.7 0.006 0 0.011-0 0.017-0h-0.001c0.367 0.004 0.648-0.141 0.831-0.431l0.149-0.235 0.024-4.516c0.016-2.844 0.047-4.704 0.085-5.023 0.356-3.012 1.305-3.961 4.325-4.327 0.721-0.088 13.601-0.129 14.907-0.049 2.117 0.132 3.137 0.42 3.952 1.119 0.436 0.376 0.783 0.461 1.181 0.295 0.354-0.141 0.6-0.482 0.6-0.879 0-0.009-0-0.017-0-0.026l0 0.001c0-0.333-0.103-0.543-0.408-0.833-1.084-1.035-2.641-1.52-5.365-1.675-0.585-0.033-0.629-0.044-0.651-0.151-0.024-0.284-0.042-0.63-0.049-0.978l-0-0.016c-0.029-0.971-0.080-1.319-0.28-1.931-0.302-0.949-1.034-1.681-1.961-1.977l-0.021-0.006c-0.616-0.201-0.943-0.247-2.197-0.3-1.329-0.057-1.828-0.059-2.060-0.003zM15.748 12.371c-0.352 0.087-0.611 0.375-0.743 0.827-0.036 0.124-0.093 0.172-0.26 0.22-0.575 0.167-1.364 0.695-1.735 1.159-0.463 0.58-0.655 1.143-0.649 1.904 0.005 0.885 0.299 1.531 0.98 2.16 0.707 0.652 1.315 0.9 2.48 1.012 0.503 0.048 0.835 0.107 0.993 0.177 0.303 0.133 0.673 0.467 0.767 0.689 0.329 0.787-0.461 1.576-1.581 1.576-0.927 0-1.584-0.484-1.677-1.236-0.057-0.464-0.24-0.72-0.628-0.883-0.106-0.050-0.23-0.079-0.361-0.079s-0.255 0.029-0.367 0.081l0.005-0.002c-0.445 0.187-0.621 0.479-0.612 1.025 0.019 1.131 0.701 2.113 1.88 2.705 0.191 0.095 0.427 0.191 0.524 0.212 0.177 0.039 0.237 0.12 0.3 0.416 0.051 0.237 0.405 0.553 0.691 0.613 0.547 0.117 1.109-0.205 1.184-0.68 0.040-0.245 0.077-0.283 0.368-0.375 0.835-0.265 1.671-0.953 2.041-1.681 0.329-0.648 0.393-1.572 0.156-2.253-0.179-0.515-0.397-0.844-0.831-1.249-0.713-0.665-1.319-0.915-2.495-1.028-0.848-0.080-1.103-0.165-1.46-0.488-0.879-0.793-0.116-1.955 1.281-1.955 0.935 0 1.583 0.479 1.677 1.236 0.057 0.464 0.24 0.72 0.628 0.883 0.106 0.050 0.23 0.079 0.361 0.079s0.255-0.029 0.367-0.081l-0.005 0.002c0.445-0.187 0.621-0.479 0.612-1.025-0.019-1.131-0.701-2.113-1.88-2.705-0.145-0.076-0.316-0.148-0.493-0.204l-0.023-0.006c-0.204-0.044-0.259-0.105-0.304-0.345-0.092-0.485-0.676-0.828-1.192-0.7zM29.015 13.715c-0.259 0.070-0.468 0.242-0.587 0.47l-0.002 0.005c-0.103 0.2-0.105 0.327-0.105 4.143 0 4.872-0.061 5.96-0.401 7.133-0.555 1.912-1.727 2.597-4.797 2.799-1.143 0.075-13.1 0.075-14.243 0-1.992-0.131-3.057-0.44-3.844-1.113-0.436-0.376-0.783-0.461-1.181-0.295-0.114 0.047-0.212 0.105-0.3 0.175l0.003-0.002c-0.276 0.249-0.384 0.787-0.228 1.145 0.208 0.485 1.3 1.225 2.3 1.561 1.511 0.507 3.232 0.608 10.372 0.608s8.861-0.101 10.372-0.608c1.649-0.555 2.809-1.715 3.364-3.364 0.355-1.056 0.489-2.183 0.564-4.719 0.063-2.137 0.021-6.941-0.064-7.264-0.135-0.509-0.705-0.825-1.221-0.675z">
			</path>
		</symbol>
		<symbol id="icon-email" viewBox="0 0 32 32">
			<path d="M15.467 3.023c-4.689 0.215-8.904 2.912-11.005 7.045-0.664 1.244-1.137 2.695-1.335 4.231l-0.007 0.063c-0.092 0.727-0.105 2.389-0.024 3.104 0.199 1.748 0.897 3.785 1.808 5.28 0.923 1.486 2.080 2.734 3.433 3.73l0.037 0.026c0.579 0.433 1.236 0.827 1.931 1.153l0.069 0.029c1.642 0.819 3.578 1.298 5.625 1.298 0.82 0 1.622-0.077 2.399-0.224l-0.080 0.013c0.993-0.184 1.245-0.269 1.476-0.499 0.487-0.487 0.363-1.259-0.251-1.555-0.281-0.136-0.492-0.129-1.303 0.047-0.792 0.172-1.396 0.231-2.32 0.229-1.651-0.004-3.112-0.341-4.655-1.077-1.372-0.653-2.264-1.304-3.287-2.397-1.948-2.084-2.967-4.653-2.965-7.483 0.003-3.063 1.049-5.607 3.217-7.817 1.841-1.877 4.376-3.025 7.067-3.2 3.557-0.232 7.063 1.311 9.268 4.079 0.945 1.168 1.668 2.558 2.079 4.076l0.018 0.078c0.259 1.015 0.281 1.259 0.308 3.237 0.023 1.697 0.016 1.935-0.065 2.179-0.251 0.757-0.796 1.307-1.549 1.564-0.336 0.115-1.043 0.115-1.379 0-0.706-0.242-1.257-0.773-1.522-1.447l-0.006-0.017c-0.060-0.148-0.080-0.839-0.103-3.596l-0.027-3.413-0.133-0.237c-0.171-0.301-0.49-0.501-0.856-0.501-0.268 0-0.51 0.107-0.687 0.281l-0.197 0.197-0.291-0.26c-1.587-1.425-3.98-1.92-6.076-1.256-3.313 1.049-5.151 4.609-4.096 7.936 1.049 3.312 4.616 5.152 7.936 4.095 0.975-0.313 1.81-0.828 2.491-1.498l-0.001 0.001c0.244-0.235 0.452-0.417 0.46-0.405l0.26 0.368c0.587 0.832 1.443 1.441 2.439 1.703l0.030 0.007c0.593 0.155 1.54 0.155 2.133 0 1.544-0.404 2.693-1.551 3.129-3.123 0.111-0.4 0.119-0.536 0.119-2.16 0.001-1.788-0.045-2.441-0.241-3.413-1.072-5.324-5.248-9.387-10.58-10.295-0.56-0.095-2.041-0.227-2.267-0.2-0.044 0.004-0.236 0.016-0.427 0.024zM17.307 11.859c1.346 0.451 2.385 1.49 2.828 2.803l0.009 0.031c0.135 0.395 0.145 0.492 0.145 1.307s-0.011 0.912-0.145 1.307c-0.453 1.345-1.492 2.385-2.806 2.828l-0.031 0.009c-0.395 0.135-0.492 0.145-1.307 0.145s-0.912-0.011-1.307-0.145c-1.345-0.453-2.385-1.492-2.828-2.806l-0.009-0.031c-0.132-0.391-0.144-0.499-0.147-1.28-0.003-0.751 0.012-0.901 0.123-1.253 0.483-1.534 1.733-2.691 3.289-3.033l0.029-0.005c0.129-0.027 0.572-0.041 0.983-0.032 0.633 0.013 0.812 0.037 1.173 0.156z">
			</path>
		</symbol>
		<symbol id="icon-percent" viewBox="0 0 32 32">
			<path d="M10.533 1.848c-1.644 0.115-3.179 0.471-4.324 1.004-1.488 0.709-2.659 1.883-3.347 3.331l-0.018 0.042c-0.643 1.373-0.983 3.107-0.997 5.064-0.008 1.123 0.001 1.16 0.36 1.428 0.207 0.153 0.713 0.153 0.92 0 0.332-0.249 0.359-0.329 0.401-1.237 0.055-1.135 0.132-1.836 0.287-2.608 0.584-2.907 2.044-4.411 4.881-5.024 1.329-0.288 1.375-0.289 6.691-0.313 3.261-0.016 5.256-0.003 5.825 0.035 1.909 0.129 3.301 0.497 4.455 1.181 0.507 0.3 1.283 1.076 1.583 1.583 0.668 1.127 1.044 2.517 1.175 4.339 0.072 1.009 0.072 9.647 0 10.656-0.131 1.821-0.507 3.212-1.175 4.339-0.3 0.507-1.076 1.283-1.583 1.583-1.127 0.668-2.517 1.044-4.339 1.175-1.009 0.072-9.647 0.072-10.656 0-2.759-0.197-4.611-0.979-5.675-2.393-0.496-0.66-0.92-1.667-1.149-2.727-0.237-1.095-0.285-1.697-0.32-4.007-0.033-2.135-0.039-2.229-0.144-2.371-0.209-0.28-0.38-0.367-0.717-0.367s-0.508 0.088-0.717 0.368c-0.107 0.143-0.109 0.207-0.109 2.449 0.001 1.913 0.017 2.424 0.097 3.023 0.328 2.461 1.024 4.084 2.301 5.361s2.895 1.972 5.361 2.303c0.656 0.088 1.22 0.096 6.4 0.096s5.744-0.008 6.4-0.096c2.46-0.331 4.088-1.029 5.361-2.303 1.263-1.263 1.94-2.825 2.301-5.308 0.077-0.532 0.092-1.315 0.111-5.92 0.023-5.54 0.003-6.267-0.204-7.532-0.345-2.112-1.024-3.579-2.208-4.763-1.265-1.264-2.849-1.951-5.308-2.3-0.6-0.085-1.213-0.095-6.16-0.101-3.021-0.004-5.613 0.001-5.76 0.011zM10.037 7.015c-1.256 0.273-2.129 0.944-2.636 2.028-0.541 1.16-0.527 2.208 0.051 3.355 0.548 1.089 1.507 1.756 2.816 1.96 1.061 0.165 2.475-0.403 3.188-1.281 0.277-0.34 0.599-0.987 0.741-1.488 0.3-1.053 0.035-2.291-0.699-3.267-0.475-0.632-1.296-1.116-2.22-1.307-0.186-0.046-0.4-0.073-0.621-0.073s-0.434 0.027-0.639 0.077l0.018-0.004zM20.533 7.364c-0.139 0.098-0.256 0.217-0.348 0.354l-0.003 0.005c-0.091 0.139-2.368 3.763-5.060 8.055-4.117 6.56-4.901 7.84-4.923 8.036-0.056 0.495 0.339 0.933 0.84 0.933 0.304 0 0.579-0.165 0.777-0.469 0.091-0.137 2.368-3.763 5.061-8.056 4.399-7.011 4.9-7.832 4.923-8.061 0.064-0.667-0.684-1.136-1.268-0.796zM11.147 8.759c0.267 0.080 0.652 0.28 0.837 0.436 0.217 0.183 0.487 0.708 0.572 1.116 0.093 0.443 0.035 0.805-0.209 1.299-0.215 0.435-0.396 0.609-0.855 0.825-0.617 0.289-1.033 0.289-1.651 0-0.459-0.216-0.64-0.391-0.855-0.825-0.337-0.683-0.337-1.203 0-1.885 0.215-0.436 0.396-0.609 0.859-0.828 0.52-0.244 0.833-0.277 1.301-0.137zM20.533 17.76c-0.671 0.181-1.255 0.505-1.68 0.932-0.443 0.444-0.676 0.823-0.889 1.444-0.136 0.356-0.215 0.767-0.215 1.197s0.079 0.842 0.223 1.221l-0.008-0.024c0.213 0.621 0.447 1 0.889 1.444 0.277 0.279 0.489 0.432 0.828 0.599 0.975 0.484 1.813 0.557 2.732 0.24 0.624-0.215 1.009-0.449 1.427-0.867 0.416-0.416 0.652-0.803 0.863-1.416 0.136-0.356 0.215-0.767 0.215-1.197s-0.079-0.842-0.223-1.221l0.008 0.024c-0.104-0.297-0.217-0.549-0.349-0.789l0.013 0.027c-0.313-0.474-0.706-0.867-1.165-1.171l-0.015-0.009c-0.825-0.484-1.847-0.651-2.653-0.433zM22.075 19.575c0.456 0.211 0.696 0.452 0.923 0.932 0.156 0.331 0.176 0.424 0.176 0.827s-0.020 0.496-0.176 0.827c-0.228 0.483-0.465 0.721-0.936 0.94-0.532 0.248-0.925 0.249-1.448 0.003-0.575-0.271-0.831-0.56-1.039-1.177-0.065-0.176-0.103-0.379-0.103-0.591 0-0.213 0.038-0.418 0.108-0.607l-0.004 0.012c0.185-0.552 0.447-0.879 0.877-1.1 0.636-0.328 1.019-0.343 1.621-0.065z">
			</path>
		</symbol>
		<symbol id="icon-arrow" viewBox="0 0 32 32">
			<path d="M4.333 16c0-0.552 0.448-1 1-1v0h3.333c0.552 0 1 0.448 1 1s-0.448 1-1 1v0h-3.333c-0.552 0-1-0.448-1-1v0zM17.96 8.707c-0.181-0.181-0.293-0.431-0.293-0.707 0-0.552 0.447-0.999 0.999-0.999 0.276 0 0.526 0.112 0.707 0.293l8 8c0.181 0.181 0.294 0.431 0.294 0.707s-0.112 0.526-0.294 0.707l-8 8c-0.181 0.181-0.431 0.293-0.707 0.293-0.552 0-0.999-0.447-0.999-0.999 0-0.276 0.112-0.526 0.293-0.707l6.292-6.293h-11.585c-0.552 0-1-0.448-1-1s0.448-1 1-1v0h11.585z">
			</path>
		</symbol>
		<symbol id="icon-arrow2" viewBox="0 0 32 32">
			<path d="M24.683 20.759l-8.683-7.441-1.683 1.441c-0.174 0.15-0.402 0.241-0.651 0.241-0.552 0-0.999-0.447-0.999-0.999 0-0.303 0.135-0.574 0.348-0.758l0.001-0.001 2.611-2.239c0.159-0.136 0.476-0.239 0.743-0.001l9.615 8.24c0.214 0.184 0.349 0.456 0.349 0.759 0 0.552-0.447 0.999-0.999 0.999-0.249 0-0.477-0.091-0.652-0.242l0.001 0.001zM5.908 20.651c-0.15-0.174-0.242-0.402-0.242-0.651 0-0.303 0.135-0.574 0.348-0.757l0.001-0.001 3.111-2.667c0.177-0.163 0.415-0.262 0.675-0.262 0.552 0 1 0.448 1 1 0 0.314-0.145 0.595-0.372 0.778l-0.002 0.002-3.111 2.667c-0.174 0.15-0.402 0.242-0.651 0.242-0.303 0-0.574-0.135-0.757-0.348l-0.001-0.001z">
			</path>
		</symbol>
		<symbol id="icon-settings" viewBox="0 0 32 32">
			<path d="M21 16c0 1.309-0.615 2.685-1.464 3.536-0.851 0.849-2.227 1.464-3.536 1.464s-2.685-0.615-3.536-1.464c-0.849-0.851-1.464-2.227-1.464-3.536s0.615-2.685 1.464-3.536c0.851-0.849 2.227-1.464 3.536-1.464s2.685 0.615 3.536 1.464c0.849 0.851 1.464 2.227 1.464 3.536zM18.121 13.879c-0.597-0.597-1.221-0.879-2.121-0.879s-1.524 0.281-2.121 0.879c-0.597 0.597-0.879 1.221-0.879 2.121s0.281 1.524 0.879 2.121c0.597 0.597 1.221 0.879 2.121 0.879s1.524-0.281 2.121-0.879c0.597-0.597 0.879-1.221 0.879-2.121s-0.281-1.524-0.879-2.121z">
			</path>
			<path d="M5.747 13.684s0.513 0.361 0.755 0.777c0.241 0.416 0.396 1.029 0.416 1.539-0.072 1.001-0.711 2.1-1.504 2.661-0.387 0.24-0.532 0.336-0.64 0.503-0.344 0.387-0.435 0.725-0.331 1.232 0.007 0.341 0.255 0.695 0.876 1.771s0.804 1.467 1.096 1.644c0.385 0.344 0.725 0.435 1.232 0.329 0.197-0.009 0.353-0.088 0.756-0.303 0.883-0.405 2.152-0.411 3.056 0.028 0.832 0.564 1.463 1.667 1.553 2.633 0.013 0.456 0.024 0.629 0.115 0.805 0.163 0.492 0.411 0.74 0.903 0.903 0.299 0.165 0.728 0.127 1.971 0.127s1.672 0.039 1.971-0.127c0.492-0.163 0.74-0.411 0.903-0.903 0.091-0.176 0.101-0.349 0.115-0.805 0.091-0.967 0.721-2.069 1.553-2.633 0.903-0.439 2.173-0.433 3.056-0.028 0.403 0.216 0.559 0.293 0.756 0.303 0.507 0.105 0.847 0.015 1.232-0.329 0.292-0.176 0.475-0.568 1.096-1.644 0.276-0.479 0.479-0.829 0.627-1.119 0.169-0.326 0.504-0.545 0.891-0.545 0.552 0 1 0.448 1 1 0 0.166-0.040 0.322-0.112 0.46l0.003-0.006c-0.172 0.335-0.4 0.731-0.676 1.209-0.621 1.076-1.061 1.761-1.611 2.231-0.681 0.46-1.521 0.735-2.425 0.735-0.101 0-0.2-0.003-0.299-0.010l0.013 0.001c-0.443-0.073-0.936-0.259-1.429-0.517-0.432-0.289-0.736-0.312-1.121-0.007-0.457 0.181-0.589 0.455-0.555 0.975-0.012 0.539-0.109 1.052-0.276 1.531l0.011-0.035c-0.434 0.866-1.12 1.551-1.96 1.974l-0.025 0.011c-0.681 0.24-1.493 0.279-2.736 0.279s-2.055-0.039-2.736-0.279c-0.866-0.434-1.551-1.12-1.974-1.96l-0.011-0.025c-0.157-0.444-0.253-0.957-0.265-1.49l-0-0.006c0.035-0.52-0.097-0.793-0.555-0.976-0.385-0.304-0.689-0.281-1.123 0.008-0.493 0.259-0.985 0.444-1.428 0.517-0.085 0.006-0.185 0.009-0.286 0.009-0.904 0-1.744-0.274-2.44-0.745l0.016 0.010c-0.549-0.471-0.989-1.155-1.611-2.231s-0.995-1.799-1.127-2.509c-0.006-0.085-0.009-0.184-0.009-0.284 0-0.905 0.275-1.745 0.746-2.442l-0.010 0.015c0.285-0.347 0.693-0.681 1.163-0.979 0.468-0.231 0.639-0.481 0.568-0.968 0.019-0.235-0.028-0.331-0.147-0.537-0.12-0.205-0.755-0.776-0.755-0.776-0.070-0.133-0.111-0.291-0.111-0.458 0-0.553 0.448-1.001 1.001-1.001 0.35 0 0.659 0.18 0.838 0.453l0.002 0.004s-0.073-0.096 0 0zM4.016 14.687s0.073 0.097 0 0zM26.253 18.316s-0.513-0.361-0.755-0.777c-0.241-0.416-0.396-1.029-0.416-1.539 0.072-1.001 0.711-2.1 1.504-2.661 0.387-0.24 0.532-0.336 0.64-0.503 0.344-0.387 0.435-0.725 0.329-1.232-0.005-0.341-0.253-0.695-0.875-1.771s-0.804-1.467-1.096-1.644c-0.387-0.344-0.725-0.435-1.232-0.329-0.197 0.009-0.353 0.087-0.756 0.303-0.883 0.405-2.153 0.411-3.056-0.029-0.832-0.563-1.463-1.665-1.553-2.632-0.013-0.456-0.024-0.629-0.115-0.805-0.163-0.492-0.411-0.74-0.903-0.903-0.299-0.165-0.728-0.127-1.971-0.127s-1.672-0.039-1.971 0.127c-0.492 0.163-0.74 0.411-0.903 0.903-0.091 0.176-0.101 0.349-0.115 0.805-0.091 0.967-0.721 2.069-1.553 2.633-0.904 0.439-2.173 0.433-3.056 0.028-0.403-0.216-0.559-0.293-0.756-0.303-0.507-0.105-0.847-0.015-1.232 0.329-0.292 0.176-0.475 0.568-1.096 1.644-0.276 0.479-0.479 0.829-0.627 1.119-0.165 0.338-0.506 0.566-0.901 0.566-0.552 0-1-0.448-1-1 0-0.175 0.045-0.339 0.123-0.482l-0.003 0.005c0.171-0.335 0.399-0.729 0.675-1.208 0.621-1.076 1.061-1.761 1.611-2.231 0.681-0.46 1.521-0.735 2.425-0.735 0.101 0 0.2 0.003 0.299 0.010l-0.013-0.001c0.443 0.073 0.935 0.259 1.428 0.517 0.433 0.289 0.737 0.312 1.123 0.007 0.457-0.181 0.588-0.455 0.555-0.975 0.023-0.556 0.109-1.076 0.265-1.496 0.434-0.866 1.12-1.551 1.96-1.974l0.025-0.011c0.681-0.24 1.493-0.279 2.736-0.279s2.055 0.039 2.736 0.279c0.866 0.434 1.551 1.12 1.974 1.96l0.011 0.025c0.156 0.42 0.243 0.94 0.265 1.496-0.035 0.52 0.097 0.793 0.555 0.975 0.385 0.305 0.689 0.283 1.121-0.007 0.493-0.259 0.987-0.444 1.429-0.517 0.085-0.006 0.185-0.009 0.286-0.009 0.904 0 1.744 0.274 2.44 0.745l-0.016-0.010c0.549 0.469 0.989 1.155 1.611 2.231s0.995 1.799 1.127 2.509c0.006 0.084 0.009 0.182 0.009 0.281 0 0.905-0.275 1.747-0.746 2.445l0.010-0.016c-0.287 0.347-0.693 0.68-1.163 0.979-0.468 0.231-0.64 0.481-0.568 0.968-0.019 0.235 0.028 0.331 0.147 0.537 0.12 0.205 0.755 0.776 0.755 0.776-0.073-0.097 0 0 0 0 0.085 0.144 0.135 0.317 0.135 0.501 0 0.552-0.448 1-1 1-0.368 0-0.689-0.198-0.863-0.494l-0.003-0.005z">
			</path>
		</symbol>
		<symbol id="icon-validate" viewBox="0 0 32 32">
			<path d="M13.115 2.712c0.151 0.051 0.297 0.112 0.44 0.181l1.709 0.843c0.215 0.108 0.468 0.171 0.736 0.171s0.521-0.063 0.746-0.176l-0.010 0.004 1.711-0.843c0.472-0.238 1.030-0.377 1.619-0.377 1.435 0 2.678 0.825 3.28 2.027l0.010 0.021 0.097 0.216 0.084 0.223 0.613 1.805c0.167 0.489 0.552 0.875 1.041 1.040l1.805 0.613c1.459 0.506 2.487 1.869 2.487 3.472 0 0.591-0.14 1.149-0.388 1.643l0.010-0.021-0.843 1.709c-0.108 0.215-0.171 0.468-0.171 0.736s0.063 0.521 0.176 0.746l-0.004-0.010 0.843 1.711c0.238 0.472 0.377 1.030 0.377 1.619 0 1.602-1.028 2.965-2.46 3.464l-0.026 0.008-1.805 0.613c-0.491 0.171-0.87 0.55-1.036 1.030l-0.004 0.012-0.613 1.805c-0.506 1.459-1.869 2.487-3.472 2.487-0.591 0-1.148-0.14-1.643-0.388l0.021 0.010-1.709-0.843c-0.215-0.108-0.468-0.171-0.736-0.171s-0.521 0.063-0.746 0.176l0.010-0.004-1.711 0.843c-0.472 0.238-1.030 0.377-1.619 0.377-1.602 0-2.965-1.028-3.464-2.46l-0.008-0.026-0.613-1.805c-0.171-0.491-0.55-0.87-1.030-1.036l-0.012-0.004-1.805-0.613c-1.459-0.506-2.487-1.869-2.487-3.472 0-0.591 0.14-1.148 0.388-1.643l-0.010 0.021 0.843-1.709c0.108-0.215 0.171-0.468 0.171-0.736s-0.063-0.521-0.176-0.746l0.004 0.010-0.843-1.711c-0.238-0.472-0.377-1.030-0.377-1.619 0-1.602 1.028-2.965 2.461-3.464l0.026-0.008 1.805-0.613c0.491-0.171 0.87-0.55 1.036-1.030l0.004-0.012 0.613-1.805c0.507-1.458 1.869-2.486 3.471-2.486 0.423 0 0.829 0.072 1.208 0.204l-0.026-0.008zM10.356 5.647l-0.613 1.805c-0.375 1.080-1.21 1.916-2.265 2.283l-0.026 0.008-1.805 0.613c-0.663 0.23-1.13 0.85-1.13 1.578 0 0.268 0.063 0.522 0.176 0.746l-0.004-0.010 0.843 1.709c0.238 0.473 0.377 1.030 0.377 1.62s-0.139 1.147-0.387 1.641l0.010-0.021-0.843 1.709c-0.108 0.215-0.171 0.468-0.171 0.736 0 0.729 0.468 1.349 1.12 1.575l0.012 0.004 1.804 0.613c1.080 0.375 1.916 1.21 2.283 2.265l0.008 0.026 0.613 1.805c0.23 0.663 0.85 1.13 1.578 1.13 0.268 0 0.522-0.063 0.746-0.176l-0.010 0.004 1.709-0.843c0.473-0.238 1.030-0.377 1.62-0.377s1.147 0.139 1.641 0.387l-0.021-0.010 1.709 0.843c0.215 0.108 0.468 0.171 0.736 0.171 0.729 0 1.349-0.468 1.575-1.12l0.004-0.012 0.613-1.804c0.375-1.080 1.21-1.916 2.265-2.283l0.026-0.008 1.805-0.613c0.663-0.23 1.13-0.85 1.13-1.578 0-0.268-0.063-0.522-0.176-0.746l0.004 0.010-0.843-1.709c-0.238-0.473-0.377-1.030-0.377-1.62s0.139-1.147 0.387-1.641l-0.010 0.021 0.843-1.709c0.108-0.215 0.171-0.468 0.171-0.736 0-0.729-0.468-1.348-1.12-1.575l-0.012-0.004-1.804-0.613c-1.080-0.375-1.916-1.21-2.283-2.265l-0.008-0.026-0.613-1.805-0.039-0.101-0.044-0.097-0.083-0.149c-0.3-0.473-0.82-0.782-1.413-0.782-0.268 0-0.522 0.063-0.746 0.176l0.010-0.004-1.709 0.843c-0.473 0.238-1.030 0.377-1.62 0.377s-1.147-0.139-1.641-0.387l0.021 0.010-1.709-0.843c-0.215-0.108-0.468-0.171-0.736-0.171-0.729 0-1.348 0.468-1.575 1.12l-0.004 0.012zM13.4 19.187l7.227-7.227c0.181-0.182 0.431-0.294 0.708-0.294 0.552 0 1 0.448 1 1 0 0.225-0.074 0.432-0.199 0.599l0.002-0.003-0.097 0.112-8 8c-0.181 0.181-0.431 0.293-0.707 0.293-0.257 0-0.491-0.097-0.669-0.256l0.001 0.001-0.1-0.104-3.333-4c-0.144-0.172-0.231-0.395-0.231-0.639 0-0.552 0.448-1 1-1 0.255 0 0.489 0.096 0.665 0.253l-0.001-0.001 0.103 0.107 2.632 3.159z">
			</path>
		</symbol>
		<symbol id="icon-write" viewBox="0 0 32 32">
			<path d="M22.361 3.035c0.892-0.831 2.184-1.368 3.301-1.368s2.411 0.537 3.303 1.368c0.831 0.892 1.368 2.185 1.368 3.303s-0.537 2.411-1.368 3.303l-4.841 4.841c-0.181 0.181-0.431 0.293-0.707 0.293-0.552 0-1-0.448-1-1 0-0.276 0.112-0.526 0.293-0.707l2.813-2.813c-0.883-0.388-1.642-0.884-2.304-1.485l0.007 0.006c-0.812-0.895-1.243-1.697-1.472-2.305l-6.796 6.797c-0.539 0.539-0.768 0.763-0.959 1.013-0.222 0.274-0.417 0.585-0.574 0.918l-0.012 0.028c-0.139 0.283-0.236 0.588-0.477 1.311l-0.575 1.727 1.376 1.377 1.727-0.576c0.723-0.241 1.028-0.339 1.311-0.477 0.353-0.165 0.64-0.343 0.945-0.585 0.251-0.191 0.475-0.42 1.013-0.959 0.18-0.174 0.424-0.28 0.694-0.28 0.552 0 1 0.448 1 1 0 0.27-0.107 0.515-0.281 0.695l0-0c-0.539 0.539-0.853 0.849-1.196 1.121-0.396 0.304-0.867 0.596-1.316 0.813-0.397 0.184-0.815 0.328-1.537 0.569l-3.812 1.269c-0.628 0.132-1.532-0.083-2.036-0.48-0.399-0.504-0.612-1.408-0.48-2.036l0.505-1.519 0.764-2.293c0.241-0.723 0.385-1.14 0.569-1.537 0.217-0.449 0.509-0.92 0.813-1.316 0.272-0.343 0.583-0.657 1.121-1.196l7.953-7.953zM27.552 8.225c0.603-0.541 0.781-1.127 0.781-1.888s-0.179-1.347-0.783-1.888c-0.541-0.604-1.127-0.783-1.888-0.783-0.76 0-1.347 0.179-1.888 0.783l-0.589 0.589c0.241 0.72 0.68 1.64 1.455 2.321 0.871 0.989 1.837 1.299 2.38 1.396zM30.333 16c0-0.552-0.448-1-1-1s-1 0.448-1 1v0h2zM16 3.667c0.552 0 1-0.448 1-1s-0.448-1-1-1v0 2zM9.835 26.684c-0.144-0.085-0.317-0.135-0.501-0.135-0.552 0-1 0.448-1 1 0 0.368 0.198 0.689 0.494 0.863l0.005 0.003 1.003-1.731zM3.585 23.167c0.172 0.318 0.502 0.53 0.883 0.53 0.552 0 1-0.448 1-1 0-0.196-0.057-0.38-0.154-0.534l0.002 0.004-1.731 1zM28.333 16c0 6.811-5.522 12.333-12.333 12.333v0 2c7.916 0 14.333-6.417 14.333-14.333h-2zM16 1.667c-7.916 0-14.333 6.417-14.333 14.333h2c0-6.811 5.522-12.333 12.333-12.333v0-2zM8.832 28.415c2.050 1.206 4.515 1.919 7.147 1.919 0.007 0 0.014 0 0.022-0h-0.001v-2c-0.006 0-0.013 0-0.020 0-2.263 0-4.383-0.612-6.203-1.681l0.058 0.031-1.003 1.731zM1.667 16c0 2.609 0.699 5.059 1.919 7.167l1.731-1c-1.037-1.762-1.649-3.882-1.649-6.145 0-0.008 0-0.015 0-0.023v0.001h-2z">
			</path>
		</symbol>
	</defs>
</svg>
