<svg xmlns="http://www.w3.org/2000/svg" fill="none" viewBox="0 0 24 24"><path d="M21.826 5.441a.62.62 0 0 0-.196.107c-.045.039-1.978 2.389-4.296 5.221-2.317 2.831-4.249 5.167-4.291 5.19a.559.559 0 0 1-.21.041c-.115 0-.428-.236-2.333-1.761-1.54-1.232-2.245-1.773-2.351-1.801a.585.585 0 0 0-.711.713.755.755 0 0 0 .191.295c.186.177 4.082 3.29 4.331 3.461a1.627 1.627 0 0 0 1.785.003c.271-.181 8.757-10.536 8.818-10.76a.592.592 0 0 0-.406-.711c-.156-.045-.175-.045-.331.002" fill-rule="evenodd" fill="#000"/></svg>