<svg xmlns="http://www.w3.org/2000/svg" viewBox="0 0 390 315">
  <defs>
    <clipPath id="a">
      <path fill="none" d="M-17.63 375.54c23.06-39.55 61-76.61 102.39-96.26 27-12.83 61.57-16.12 96.47-6.77s63.2 29.49 80.16 54.1c26 37.69 40.35 88.78 40.55 134.55a86.23 86.23 0 0 1-2.94 22.78c-17.06 63.67-103.75 95.75-193.63 71.67S-43.54 460.39-26.48 396.73a86.25 86.25 0 0 1 8.85-21.19Z" clip-rule="evenodd"/>
    </clipPath>
  </defs>
  <path fill="#fff" fill-opacity=".7" d="M80.12 61.265c16.312-14.686 42.76-28.159 73.432-27.798l3.601-.047c31.187-.707 54.7 11.269 72.76 24.929l3.26 3.193c30.741 28.771 54.341 69.372 64.932 112.378l.355 1.759c1.64 6.384 2.345 12.334 2.266 19.134.825 30.972-20.292 58.364-41.701 74.362-26.789 20.019-59.663 30.779-99.615 31.698l-3.249-.003c-41.414.652-79.016-13.845-102.692-32.294-26.311-18.949-39.759-44.822-41.158-69.784l-.082-4.652c-.087-7.12.475-12.736 2.332-19.588l1.362-4.724c11.054-41.026 32.355-79.896 62.485-106.991l1.712-1.572Z" class="cls-6"/>
  <path fill="#2a2a2a" fill-opacity=".9" d="M26.552 68.25C10.725 38.687 30.477 1.713 62.109 1.697c14.679-.008 28.247 8.441 35.593 22.161l3.805 8.757C73.02 45.212 53.21 70.2 40.025 90.841L26.552 68.25Z" class="cls-6" transform-origin="66.234px 41.018px"/>
  <path fill="#2a2a2a" fill-opacity=".9" d="M278.254 68.247c15.72-29.625-4.164-66.51-35.79-66.392-14.576.054-28.035 8.443-35.367 22.043l-2.838 5.61c31.773 11.718 50.928 36.048 63.133 52.423l10.862-13.684Z" class="cls-6" transform-origin="248.548px 50.215px"/>
  <path fill-opacity=".5" d="M221.138 207.531c-5.088-10.259-2.906-22.102-14.535-30.779-21.787-8.802-26.673-34.554-4.444-44.215 30.756-13.368 55.987 19.316 64.104 35.406 8.119 16.09 5.327 41.165-12.437 49.844-14.511 7.107-27.61.005-32.688-10.256Z" class="cls-6" transform-origin="230.281px 174.44px"/>
  <circle cx="253.25" cy="214.695" r="12.29" fill-opacity=".9" class="cls-7" style="transform-box:fill-box" transform="matrix(.89476 -.25882 .23975 .96593 -19.065 -39.665)" transform-origin="50% 50%"/>
  <path fill-opacity=".52" d="M89.342 207.531c5.184-10.257 2.963-22.101 14.811-30.777 22.221-8.809 27.192-34.565 4.542-44.215-31.369-13.371-57.083 19.348-65.371 35.411-8.288 16.063-5.425 41.159 12.688 49.844 14.815 7.102 28.147-.005 33.33-10.263Z" class="cls-6" transform-origin="81.206px 174.454px"/>
  <circle cx="100.81" cy="173.845" r="12.29" fill-opacity=".9" class="cls-7" style="transform-box:fill-box" transform="matrix(.89476 -.25882 .23975 .96593 -24.444 1.181)" transform-origin="50% 50%"/>
  <path fill="#252525" fill-opacity=".9" d="M132.818 238.445c-8.727.015-15.809-7.515-15.81-16.814l-11.892-.009c-.003 16.295 12.396 29.504 27.688 29.504l.014-12.681m15.78-16.845c.016 9.297-7.054 16.843-15.78 16.845l-.055 12.676c15.286-.008 27.833-13.233 27.839-29.521h-12.004m-.016 0 .13-8.249c3.29.339 11.621.885 14.905.106l.203 8.143m15.778 16.845c-8.709.009-15.772-7.553-15.778-16.848l-3.212-.002m-.009-.009c0 5.243-4.618 15.294-4.53 15.446 4.862 8.448 13.599 14.082 23.568 14.081l-.039-12.668m15.751-16.845c.015 9.298-7.04 16.843-15.751 16.845l.039 12.668c15.261-.002 27.633-13.206 27.634-29.498l-11.922-.015m-17.384-22.677c0 4.907-9.669 15.987-21.598 15.99-11.93.003-21.596-11.084-21.596-15.991s9.668-8.884 21.6-8.878c11.931.007 21.594 3.972 21.594 8.879" class="cls-6"/>
  <g clip-path="url(#a)" transform="matrix(.89476 -.25882 .23975 .96593 14.287 -245.152)" transform-origin="136.263px 415.384px">
    <path fill="#2a2a2a" fill-opacity=".9" d="M79.28 267.75C35.36 288.62-4.45 327.61-28.66 369.11L-6.61 382c21.92-37.59 58.08-72.74 96.84-91.16Zm171.61 66.11c24.36 35.33 38.09 83.85 38.28 127.36l25.53-.11c-.21-48-15.19-101.71-42.8-141.74ZM-14.15 400a73.79 73.79 0 0 1 7.54-18l-22-12.86a99.39 99.39 0 0 0-10.15 24.32Zm122.83 143.28C66 531.84 31.15 509.35 9.17 482.86S-21.32 426.8-14.15 400l-24.66-6.6c-9.88 36.89 2.62 74.75 28.33 105.73s65.36 56.13 112.55 68.78Zm178-62.64c-7.17 26.77-29.29 48.11-61.6 60.07s-73.7 14-116.39 2.57l-6.61 24.66c47.19 12.64 94.06 10.7 131.86-3.29s67.52-40.51 77.4-77.4Zm2.5-19.42a73.26 73.26 0 0 1-2.5 19.42l24.66 6.61a98.83 98.83 0 0 0 3.37-26.14ZM177.93 284.84c32.22 8.63 57.85 27.11 73 49l21-14.49c-18.83-27.32-49.79-49.12-87.37-59.19Zm-87.7 6c24-11.42 55.47-14.61 87.7-6l6.6-24.66c-37.57-10.07-75.28-6.67-105.25 7.57Zm171.16 35.8-10.5 7.25Z" class="cls-6"/>
  </g>
  <path fill="#b77ebb" fill-opacity=".8" d="M273.276 106.336c-90.281 30.64-187.711 14.782-235.389-.042-5.583-1.789-7.89-8.964-4.536-14.103l18.543-29.61c2.062-3.261 5.749-4.847 9.323-4.012 87.201 20.122 155.848 9.696 190.164.432 3.838-1.064 7.872.682 9.969 4.312l16.613 29.182c3.013 5.158.698 11.998-4.687 13.841Z" class="cls-12" transform-origin="153.737px 86.248px"/>
  <path fill="#733a7c" fill-opacity=".7" fill-rule="evenodd" d="M167.56 123.792c-52.731-1.021-99.004-13.808-127.162-25.716-3.271-1.379-5.401-4.811-5.338-8.602l-1.71 2.731c-3.353 5.139-1.046 12.314 4.536 14.103 29.067 9.037 76.575 18.422 129.674 17.484Z" transform-origin="99.41px 107.383px"/>
  <path fill="#733a7c" fill-opacity=".8" d="M384.281 190.082c-53.443 3.643-68.779-3.719-49.957-70.979 2.69-10.777-12.629-21.172-34.484-21.269l-31.075 3.063c70.507 8.505 17.863 64.036 25.018 86.249 9.098 47.37 69.084 41.154 90.676 28.549l-15.146-12.306 14.968-13.307Z" class="cls-7" transform-origin="337.025px 158.58px"/>
  <path fill="#b77ebb" fill-opacity=".8" d="M342.755 113.601c6.639-23.288-35.208-23.288-69.383-23.288 0 13.247-14.56 10.162 1.76 10.162 70.306 8.506 21.671 60.956 28.805 83.17 9.072 47.369 64.451 44.555 85.995 32.05l-12.042-12.948 13.202-17.338c-56.768-.807-69.086.975-48.337-71.808Z" class="cls-12" transform-origin="344.149px 147.742px"/>
</svg>
