<svg width="24" height="24" fill="none" xmlns="http://www.w3.org/2000/svg"><path d="M7.9 1.386c-1.233.086-2.384.353-3.243.753a5.242 5.242 0 0 0-2.524 2.53c-.482 1.03-.737 2.33-.748 3.798-.006.842.001.87.27 1.071.155.115.535.115.69 0 .249-.187.269-.247.301-.928.041-.851.099-1.377.215-1.956.438-2.18 1.533-3.308 3.661-3.768.997-.216 1.031-.217 5.018-.235 2.446-.012 3.942-.002 4.369.026 1.432.097 2.476.373 3.341.886.38.225.962.807 1.187 1.187.501.845.783 1.888.881 3.254.054.757.054 7.235 0 7.992-.098 1.366-.38 2.409-.881 3.254-.225.38-.807.962-1.187 1.187-.845.501-1.888.783-3.254.881-.757.054-7.235.054-7.992 0-2.069-.148-3.458-.734-4.256-1.795-.372-.495-.69-1.25-.862-2.045-.178-.821-.214-1.273-.24-3.005-.025-1.601-.029-1.672-.108-1.778-.157-.21-.285-.275-.538-.275-.253 0-.381.066-.538.276-.08.107-.082.155-.082 1.837.001 1.435.013 1.818.073 2.267.246 1.846.768 3.063 1.726 4.021.958.958 2.171 1.479 4.021 1.727.492.066.915.072 4.8.072s4.308-.006 4.8-.072c1.845-.248 3.066-.772 4.021-1.727.947-.947 1.455-2.119 1.726-3.981.058-.399.069-.986.083-4.44.017-4.155.002-4.7-.153-5.649-.259-1.584-.768-2.684-1.656-3.572-.949-.948-2.137-1.463-3.981-1.725-.45-.064-.91-.071-4.62-.076-2.266-.003-4.21.001-4.32.008m-.372 3.875c-.942.205-1.597.708-1.977 1.521-.406.87-.395 1.656.038 2.516.411.817 1.13 1.317 2.112 1.47.796.124 1.856-.302 2.391-.961.208-.255.449-.74.556-1.116.225-.79.026-1.718-.524-2.45-.356-.474-.972-.837-1.665-.98a2.006 2.006 0 0 0-.931 0m7.872.262a1.008 1.008 0 0 0-.263.269c-.068.104-1.776 2.822-3.795 6.041-3.088 4.92-3.676 5.88-3.692 6.027-.042.371.254.7.63.7.228 0 .434-.124.583-.352.068-.103 1.776-2.822 3.796-6.042 3.299-5.258 3.675-5.874 3.692-6.046.048-.5-.513-.852-.951-.597M8.36 6.569c.2.06.489.21.628.327.163.137.365.531.429.837.07.332.026.604-.157.974-.161.326-.297.457-.641.619-.463.217-.775.217-1.238 0-.344-.162-.48-.293-.641-.619-.253-.512-.253-.902 0-1.414.161-.327.297-.457.644-.621.39-.183.625-.208.976-.103m7.04 6.751c-.503.136-.941.379-1.26.699-.332.333-.507.617-.667 1.083a2.581 2.581 0 0 0 0 1.796c.16.466.335.75.667 1.083.208.209.367.324.621.449.731.363 1.36.418 2.049.18.468-.161.757-.337 1.07-.65.312-.312.489-.602.647-1.062a2.581 2.581 0 0 0 0-1.796 3.862 3.862 0 0 0-.252-.572 3.059 3.059 0 0 0-.885-.885c-.619-.363-1.385-.488-1.99-.325m1.156 1.361c.342.158.522.339.692.699.117.248.132.318.132.62s-.015.372-.132.62c-.171.362-.349.541-.702.705-.399.186-.694.187-1.086.002-.431-.203-.623-.42-.779-.883a1.311 1.311 0 0 1 .001-.889c.139-.414.335-.659.658-.825.477-.246.764-.257 1.216-.049" fill-rule="evenodd" fill="#000"/></svg>