<svg viewBox="0 0 24 24" xmlns="http://www.w3.org/2000/svg"><path d="M15.75 12c0 .982-.461 2.014-1.098 2.652-.638.637-1.67 1.098-2.652 1.098-.982 0-2.014-.461-2.652-1.098-.637-.638-1.098-1.67-1.098-2.652 0-.982.461-2.014 1.098-2.652.638-.637 1.67-1.098 2.652-1.098.982 0 2.014.461 2.652 1.098.637.638 1.098 1.67 1.098 2.652Zm-2.159-1.591c-.448-.448-.916-.659-1.591-.659-.675 0-1.143.211-1.591.659-.448.448-.659.916-.659 1.591 0 .675.211 1.143.659 1.591.448.448.916.659 1.591.659.675 0 1.143-.211 1.591-.659.448-.448.659-.916.659-1.591 0-.675-.211-1.143-.659-1.591Z"/><path d="M4.31 10.263s.385.271.566.583c.181.312.297.772.312 1.154-.054.751-.533 1.575-1.128 1.996-.29.18-.399.252-.48.377-.258.29-.326.544-.248.924.005.256.191.521.657 1.328s.603 1.1.822 1.233c.289.258.544.326.924.247.148-.007.265-.066.567-.227.662-.304 1.614-.308 2.292.021.624.423 1.097 1.25 1.165 1.975.01.342.018.472.086.604.122.369.308.555.677.677.224.124.546.095 1.478.095.932 0 1.254.029 1.478-.095.369-.122.555-.308.677-.677.068-.132.076-.262.086-.604.068-.725.541-1.552 1.165-1.975.677-.329 1.63-.325 2.292-.021.302.162.419.22.567.227.38.079.635.011.924-.247.219-.132.356-.426.822-1.233.207-.359.359-.622.47-.839a.75.75 0 0 1 1.336.682c-.129.251-.3.548-.507.907-.466.807-.796 1.321-1.208 1.673a3.277 3.277 0 0 1-2.033.544c-.332-.055-.702-.194-1.072-.388-.324-.217-.552-.234-.841-.005-.343.136-.442.341-.416.731a3.733 3.733 0 0 1-.199 1.122 3.283 3.283 0 0 1-1.489 1.489c-.511.18-1.12.209-2.052.209-.932 0-1.541-.029-2.052-.209a3.283 3.283 0 0 1-1.489-1.489 3.733 3.733 0 0 1-.199-1.122c.026-.39-.073-.595-.416-.732-.289-.228-.517-.211-.842.006-.37.194-.739.333-1.071.388a3.277 3.277 0 0 1-2.033-.544c-.412-.353-.742-.866-1.208-1.673-.466-.807-.746-1.349-.845-1.882a3.277 3.277 0 0 1 .545-2.033c.214-.26.52-.511.872-.734.351-.173.479-.361.426-.726.014-.176-.021-.248-.11-.403-.09-.154-.566-.582-.566-.582a.751.751 0 0 1 1.298-.752s-.055-.072 0 0Zm-1.298.752s.055.073 0 0Zm16.678 2.722s-.385-.271-.566-.583c-.181-.312-.297-.772-.312-1.154.054-.751.533-1.575 1.128-1.996.29-.18.399-.252.48-.377.258-.29.326-.544.247-.924-.004-.256-.19-.521-.656-1.328s-.603-1.1-.822-1.233c-.29-.258-.544-.326-.924-.247-.148.007-.265.065-.567.227-.662.304-1.615.308-2.292-.022-.624-.422-1.097-1.249-1.165-1.974-.01-.342-.018-.472-.086-.604-.122-.369-.308-.555-.677-.677-.224-.124-.546-.095-1.478-.095-.932 0-1.254-.029-1.478.095-.369.122-.555.308-.677.677-.068.132-.076.262-.086.604-.068.725-.541 1.552-1.165 1.975-.678.329-1.63.325-2.292.021-.302-.162-.419-.22-.567-.227-.38-.079-.635-.011-.924.247-.219.132-.356.426-.822 1.233-.207.359-.359.622-.47.839a.75.75 0 1 1-1.335-.683c.128-.251.299-.547.506-.906.466-.807.796-1.321 1.208-1.673a3.277 3.277 0 0 1 2.033-.544c.332.055.701.194 1.071.388.325.217.553.234.842.005.343-.136.441-.341.416-.731.017-.417.082-.807.199-1.122a3.283 3.283 0 0 1 1.489-1.489c.511-.18 1.12-.209 2.052-.209.932 0 1.541.029 2.052.209a3.283 3.283 0 0 1 1.489 1.489c.117.315.182.705.199 1.122-.026.39.073.595.416.731.289.229.517.212.841-.005.37-.194.74-.333 1.072-.388a3.277 3.277 0 0 1 2.033.544c.412.352.742.866 1.208 1.673.466.807.746 1.349.845 1.882a3.284 3.284 0 0 1-.545 2.033c-.215.26-.52.51-.872.734-.351.173-.48.361-.426.726-.014.176.021.248.11.403.09.154.566.582.566.582-.055-.073 0 0 0 0a.75.75 0 0 1-1.298.752Z"/></svg>