<svg xmlns="http://www.w3.org/2000/svg" fill="none" viewBox="0 0 24 24">
  <path fill="#000" d="M16.771 2.276c.669-.623 1.638-1.026 2.476-1.026.838 0 1.808.403 2.477 1.026.623.669 1.026 1.639 1.026 2.477 0 .838-.403 1.808-1.026 2.477l-.646.646-.005.005-2.98 2.98A.75.75 0 1 1 17.032 9.8l2.11-2.11a6.31 6.31 0 0 1-1.723-1.109c-.609-.671-.932-1.273-1.104-1.729L11.218 9.95c-.404.404-.576.572-.719.76a3.408 3.408 0 0 0-.439.709c-.104.212-.177.441-.358.983l-.431 1.295 1.032 1.033 1.295-.432c.542-.181.771-.254.983-.358.265-.124.48-.257.709-.439.188-.143.356-.315.76-.719a.75.75 0 0 1 1.06 1.061c-.404.404-.64.637-.897.841-.297.228-.65.447-.987.61-.298.138-.611.246-1.153.427l-1.72.573-.03.01-1.109.369c-.471.099-1.149-.062-1.527-.36-.299-.378-.459-1.056-.36-1.527l.369-1.109.01-.03.573-1.72c.181-.542.289-.855.427-1.153.163-.337.382-.69.61-.987.204-.257.437-.493.841-.897l5.965-5.965Zm3.893 3.893c.452-.406.586-.845.586-1.416s-.134-1.01-.587-1.416c-.406-.453-.845-.587-1.416-.587-.57 0-1.01.134-1.416.587l-.442.442c.181.54.51 1.23 1.091 1.741.653.742 1.378.974 1.785 1.047ZM22.75 12a.75.75 0 0 0-1.5 0h1.5ZM12 2.75a.75.75 0 0 0 0-1.5v1.5ZM7.376 20.013a.75.75 0 1 0-.752 1.298l.752-1.298Zm-4.687-2.638a.75.75 0 1 0 1.298-.75l-1.298.75ZM21.25 12A9.25 9.25 0 0 1 12 21.25v1.5c5.937 0 10.75-4.813 10.75-10.75h-1.5ZM12 1.25C6.063 1.25 1.25 6.063 1.25 12h1.5A9.25 9.25 0 0 1 12 2.75v-1.5ZM6.624 21.311A10.704 10.704 0 0 0 12 22.75v-1.5a9.204 9.204 0 0 1-4.624-1.237l-.752 1.298ZM1.25 12a10.7 10.7 0 0 0 1.439 5.375l1.298-.75A9.204 9.204 0 0 1 2.75 12h-1.5Z"/>
</svg>
